<?xml version="1.0" standalone="no"?><!DOCTYPE svg PUBLIC "-//W3C//DTD SVG 1.1//EN" "http://www.w3.org/Graphics/SVG/1.1/DTD/svg11.dtd"><svg t="1656913440027" class="icon" viewBox="0 0 1024 1024" version="1.1" xmlns="http://www.w3.org/2000/svg" p-id="22265" width="200" height="200" xmlns:xlink="http://www.w3.org/1999/xlink"><defs><style type="text/css">@font-face { font-family: feedback-iconfont; src: url("//at.alicdn.com/t/font_1031158_u69w8yhxdu.woff2?t=1630033759944") format("woff2"), url("//at.alicdn.com/t/font_1031158_u69w8yhxdu.woff?t=1630033759944") format("woff"), url("//at.alicdn.com/t/font_1031158_u69w8yhxdu.ttf?t=1630033759944") format("truetype"); }
</style></defs><path d="M800 416V288a288 288 0 0 0-288-288 288 288 0 0 0-288 288v128a96 96 0 0 0-96 96v224a288 288 0 0 0 288 288h192a288 288 0 0 0 288-288v-224a96 96 0 0 0-96-96zM288 288a224 224 0 1 1 448 0v128h-64V288.064a160 160 0 0 0-160-160 160 160 0 0 0-160 160V416H288V288z m352 0v128h-256V288a128 128 0 0 1 256 0z m192 320v128c0 123.488-100.512 224-224 224h-192c-123.488 0-224-100.512-224-224v-224a32 32 0 0 1 32-32h576c17.632 0 32 14.336 32 32v96z" fill="#333333" p-id="22266"></path><path d="M512 608a64 64 0 0 0-64 64c0 19.424 10.656 56.32 21.344 85.504 8.704 23.744 19.648 42.432 42.656 42.432 25.024 0 33.952-18.496 42.688-42.112 10.816-29.248 21.312-66.336 21.312-85.824a64 64 0 0 0-64-64z" fill="#333333" p-id="22267"></path></svg>